<?xml version="1.0" encoding="UTF-8" standalone="no"?>
<!-- Generator: Adobe Illustrator 15.0.2, SVG Export Plug-In . SVG Version: 6.00 Build 0)  -->

<svg
   xmlns:dc="http://purl.org/dc/elements/1.1/"
   xmlns:cc="http://creativecommons.org/ns#"
   xmlns:rdf="http://www.w3.org/1999/02/22-rdf-syntax-ns#"
   xmlns:svg="http://www.w3.org/2000/svg"
   xmlns="http://www.w3.org/2000/svg"
   xmlns:sodipodi="http://sodipodi.sourceforge.net/DTD/sodipodi-0.dtd"
   xmlns:inkscape="http://www.inkscape.org/namespaces/inkscape"
   version="1.0"
   id="Layer_1"
   x="0px"
   y="0px"
   width="512"
   height="512"
   viewBox="0 0 512 512"
   enable-background="new 0 0 2481 2073"
   xml:space="preserve"
   inkscape:version="0.48.4 r9939"
   inkscape:export-xdpi="90"
   inkscape:export-ydpi="90">
	<metadata
   id="metadata3013">
		<rdf:RDF>
			<cc:Work
       rdf:about="">
				<dc:format>image/svg+xml</dc:format>
				<dc:type
         rdf:resource="http://purl.org/dc/dcmitype/StillImage" />
				<dc:title/>
			</cc:Work>
		</rdf:RDF>
	</metadata>
	<defs
   id="defs3011" />
	<sodipodi:namedview
   pagecolor="#ffffff"
   bordercolor="#666666"
   borderopacity="1"
   objecttolerance="10"
   gridtolerance="10"
   guidetolerance="10"
   inkscape:pageopacity="0"
   inkscape:pageshadow="2"
   inkscape:window-width="1920"
   inkscape:window-height="1148"
   id="namedview3009"
   showgrid="false"
   fit-margin-top="0"
   fit-margin-left="0"
   fit-margin-right="0"
   fit-margin-bottom="0"
   inkscape:zoom="1.8543174"
   inkscape:cx="223.45539"
   inkscape:cy="277.30203"
   inkscape:window-x="-8"
   inkscape:window-y="-8"
   inkscape:window-maximized="1"
   inkscape:current-layer="Layer_1" />
	<g
   inkscape:groupmode="layer"
   id="layer1"
   inkscape:label="Layer">
		<rect
     style="fill:#00b4f0;fill-opacity:1;stroke:#00ffff;stroke-width:0.99170578;stroke-opacity:1"
     id="rect3059"
     width="511.0083"
     height="511.0083"
     x="0.49584961"
     y="0.49584961" />
	</g>
	<g
   id="g3001"
   transform="matrix(0.21488983,0,0,0.21488983,-16.619046,42.387312)">
		<path
   clip-rule="evenodd"
   stroke-miterlimit="10"
   d="M 730.94,1839.629 C 692.174,1649.328 623.824,1490.964 541.037,1344.189 479.63,1235.317 408.493,1134.826 342.673,1029.251 320.701,994.007 301.739,956.774 280.626,920.197 238.41,847.06 204.182,762.262 206.357,652.265 c 2.125,-107.473 33.208,-193.684 78.03,-264.172 73.719,-115.935 197.201,-210.989 362.884,-235.969 135.466,-20.424 262.475,14.082 352.543,66.748 73.6,43.038 130.596,100.527 173.92,168.28 45.22,70.716 76.359,154.26 78.971,263.232 1.337,55.83 -7.805,107.532 -20.684,150.418 -13.034,43.409 -33.996,79.695 -52.646,118.454 -36.406,75.659 -82.049,144.982 -127.855,214.346 -136.437,206.606 -264.496,417.31 -320.58,706.027 z"
   id="path3003"
   inkscape:connector-curvature="0"
   style="fill:#00b4f0;fill-rule:evenodd;stroke:#ffffff;stroke-width:93.07094710000001200;stroke-miterlimit:10;stroke-opacity:1;fill-opacity:0;stroke-dasharray:none" />
		<path
   clip-rule="evenodd"
   d="m 733.88857,2054.8666 c 131.604,-120.864 211.314,-235.977 269.13803,-350.49 42.892,-84.942 70.542,-169.166 106.953,-254.061 12.156,-28.34 28.508,-56.568 42.519,-85.3 28.018,-57.449 72.657,-118.133 169.03,-178.096 94.16,-58.588 193.955,-93.756 291.58,-114.697 160.565,-34.442 344.277,-37.299 502.593,15.593 129.444,43.246 204.674,113.469 233.778,178.863 23.783,53.438 21.428,108.185 -1.045,163.103 -23.455,57.32 -69.568,116.065 -161.105,177.391 -46.898,31.417 -98.9,56.333 -146.412,74.868 -48.088,18.761 -96.6,30.392 -145.328,44.32 -95.119,27.188 -192.42,47.153 -289.891,67.076 -290.323,59.339 -577.251,124.321 -871.81003,261.43 z"
   id="path3005"
   inkscape:connector-curvature="0"
   style="opacity:0.08999999;fill-rule:evenodd" />

		<g
   id="g3017"
   transform="matrix(4.6535473,0,0,4.6535473,-2141.3189,64.690726)">

			<path
   id="path3021"
   d="m 608.27956,205.55691 -17.23125,-51.31851 -1.07948,0 c -5.60277,0 -8.42899,-4.39533 -8.42899,-8.47478 0,-4.07946 2.82622,-8.47614 8.42899,-8.47614 l 6.67823,0 c 3.57406,0 6.61913,2.33131 7.7832,5.22013 l 13.20068,44.91585 13.2262,-44.97254 c 1.19762,-2.69174 4.11783,-5.16344 7.75903,-5.16344 l 6.67687,0 c 5.60278,0 8.43035,4.39668 8.43035,8.47614 0,4.07945 -2.82623,8.47478 -8.43035,8.47478 l -1.07812,0 -17.22991,51.31851 c -1.19091,2.77813 -3.32434,5.17829 -9.33258,5.17829 -6.03913,0 -8.17928,-2.39341 -9.37287,-5.17829 z m -39.65847,-115.172347 32.36801,0 c 14.7286,0 15.86178,11.389257 16.34646,17.084567 0.81095,-5.69666 1.94278,-17.084567 16.66869,-17.084567 l 32.3707,0 c 6.79636,0 9.70986,-3.091313 9.70986,-7.647289 l 0,-4.070003 c 0,-4.231994 2.265,-7.321958 7.2824,-7.321958 4.69246,0 7.28239,3.089964 7.28239,7.321958 l 0,12.042624 c 0,14.153885 -6.63526,21.154575 -21.52496,21.154575 l -33.01649,0 c -9.87099,0 -10.84438,4.22795 -10.84438,8.2966 0,5.37131 -3.88154,7.81197 -7.76709,7.81197 -3.88422,0 -7.76977,-2.442 -7.76977,-7.81197 0,-4.07 -0.97072,-8.2966 -10.84305,-8.2966 l -33.01514,0 c -14.89106,0 -21.52631,-7.00069 -21.52631,-21.154575 l 0,-12.042624 c 0,-4.231994 2.59127,-7.321958 7.28375,-7.321958 5.01738,0 7.28507,3.089964 7.28507,7.321958 l 0,4.070003 c 0,4.555976 2.91216,7.647289 9.70986,7.647289 z"
   inkscape:connector-curvature="0"
   style="fill:#ffffff;fill-opacity:1" />
		</g>
	</g>
</svg>